{
	"asset":{
		"version":"2.0",
		"generator":"Created using the official Cinema 4D glTF Exporter 1.000x284978"
	},
	"scenes":[{
		"nodes":[0]
	}],
	"nodes":[{
		"name":"Null",
		"translation":[0.0,
		0.0,
		0.0],
		"rotation":[0.006291534751653671,
		0.2359757274389267,
		0.021317696198821069,
		0.9715047478675842],
		"scale":[1.0,
		1.0,
		1.0],
		"children":[1,
		6]
	},
	{
		"name":"bear.002",
		"translation":[7.40191650390625,
		9.28118896484375,
		-12.866500854492188],
		"rotation":[0.6759320497512817,
		0.20764359831809998,
		0.20764359831809998,
		-0.6759320497512817],
		"scale":[100.00000762939453,
		100.00000762939453,
		100.0],
		"children":[2,
		3,
		4,
		5]
	},
	{
		"name":"bear.002-eyes",
		"mesh":0
	},
	{
		"name":"bear.002-Nose.002",
		"mesh":1
	},
	{
		"name":"bear.002-Material.012",
		"mesh":2
	},
	{
		"name":"bear.002-fabric_white",
		"mesh":3
	},
	{
		"name":"bow_bear",
		"mesh":4,
		"translation":[-7.40191650390625,
		-9.28118896484375,
		12.866500854492188],
		"rotation":[7.909253696425367e-8,
		-0.23935148119926454,
		1.9497655046052388e-8,
		0.9709329605102539],
		"scale":[10.19378662109375,
		10.193785667419434,
		10.19378662109375]
	}],
	"meshes":[{
		"name":"bear.002-eyes",
		"primitives":[{
			"attributes":{
				"POSITION":1,
				"NORMAL":2,
				"TEXCOORD_0":3
			},
			"indices":0,
			"material":0
		}]
	},
	{
		"name":"bear.002-Nose.002",
		"primitives":[{
			"attributes":{
				"POSITION":5,
				"NORMAL":6,
				"TEXCOORD_0":7
			},
			"indices":4,
			"material":1
		}]
	},
	{
		"name":"bear.002-Material.012",
		"primitives":[{
			"attributes":{
				"POSITION":9,
				"NORMAL":10,
				"TEXCOORD_0":11
			},
			"indices":8,
			"material":2
		}]
	},
	{
		"name":"bear.002-fabric_white",
		"primitives":[{
			"attributes":{
				"POSITION":13,
				"NORMAL":14,
				"TEXCOORD_0":15
			},
			"indices":12,
			"material":3
		}]
	},
	{
		"name":"bow_bear",
		"primitives":[{
			"attributes":{
				"POSITION":17,
				"NORMAL":18,
				"TEXCOORD_0":19
			},
			"indices":16,
			"material":4
		}]
	}],
	"accessors":[{
		"byteOffset":0,
		"bufferView":0,
		"type":"SCALAR",
		"componentType":5123,
		"count":864,
		"min":[0],
		"max":[196]
	},
	{
		"byteOffset":0,
		"bufferView":1,
		"type":"VEC3",
		"componentType":5126,
		"count":197,
		"min":[-0.44692692160606387,
		-0.6566068530082703,
		0.8150451183319092],
		"max":[0.3188418745994568,
		-0.5356810092926025,
		1.0142908096313477]
	},
	{
		"byteOffset":12,
		"bufferView":1,
		"type":"VEC3",
		"componentType":5126,
		"count":197,
		"min":[-0.9807500243186951,
		-0.9992188215255737,
		-0.9910625219345093],
		"max":[0.998343825340271,
		0.5345937609672546,
		0.9888125658035278]
	},
	{
		"byteOffset":24,
		"bufferView":1,
		"type":"VEC2",
		"componentType":5126,
		"count":197,
		"min":[0.0,
		0.0],
		"max":[1.0000001192092896,
		0.625]
	},
	{
		"byteOffset":0,
		"bufferView":2,
		"type":"SCALAR",
		"componentType":5123,
		"count":7296,
		"min":[0],
		"max":[1419]
	},
	{
		"byteOffset":0,
		"bufferView":3,
		"type":"VEC3",
		"componentType":5126,
		"count":1420,
		"min":[-0.2603050768375397,
		-0.8646013736724854,
		0.6031677722930908],
		"max":[0.104715496301651,
		-0.708779513835907,
		0.8460216522216797]
	},
	{
		"byteOffset":12,
		"bufferView":3,
		"type":"VEC3",
		"componentType":5126,
		"count":1420,
		"min":[-0.9620000720024109,
		-0.9961875677108765,
		-0.9214062690734863],
		"max":[0.9933125376701355,
		0.4114375114440918,
		0.998343825340271]
	},
	{
		"byteOffset":24,
		"bufferView":3,
		"type":"VEC2",
		"componentType":5126,
		"count":1420,
		"min":[0.23974597454071046,
		-0.69053715467453],
		"max":[0.6429455876350403,
		-0.2503758668899536]
	},
	{
		"byteOffset":0,
		"bufferView":4,
		"type":"SCALAR",
		"componentType":5123,
		"count":4176,
		"min":[0],
		"max":[719]
	},
	{
		"byteOffset":0,
		"bufferView":5,
		"type":"VEC3",
		"componentType":5126,
		"count":720,
		"min":[-0.06831434369087219,
		-0.8515843152999878,
		0.4238760471343994],
		"max":[-0.033694565296173099,
		-0.8007510900497437,
		0.6532657146453857]
	},
	{
		"byteOffset":12,
		"bufferView":5,
		"type":"VEC3",
		"componentType":5126,
		"count":720,
		"min":[-0.9995312690734863,
		-0.999093770980835,
		-0.7063750624656677],
		"max":[0.9994375705718994,
		0.9994375705718994,
		0.6704375147819519]
	},
	{
		"byteOffset":24,
		"bufferView":5,
		"type":"VEC2",
		"componentType":5126,
		"count":720,
		"min":[0.0,
		1.0],
		"max":[1.8125,
		1.0]
	},
	{
		"byteOffset":0,
		"bufferView":6,
		"type":"SCALAR",
		"componentType":5123,
		"count":25920,
		"min":[0],
		"max":[5058]
	},
	{
		"byteOffset":0,
		"bufferView":7,
		"type":"VEC3",
		"componentType":5126,
		"count":5059,
		"min":[-1.5769867897033692,
		-1.465770959854126,
		-1.8974040746688843],
		"max":[1.576986312866211,
		1.0357563495635987,
		1.6418054103851319]
	},
	{
		"byteOffset":12,
		"bufferView":7,
		"type":"VEC3",
		"componentType":5126,
		"count":5059,
		"min":[-0.9997813105583191,
		-0.9998750686645508,
		-0.9992188215255737],
		"max":[0.9997813105583191,
		0.9997813105583191,
		0.9998750686645508]
	},
	{
		"byteOffset":24,
		"bufferView":7,
		"type":"VEC2",
		"componentType":5126,
		"count":5059,
		"min":[0.0,
		-0.14095157384872437],
		"max":[0.14770139753818513,
		0.0]
	},
	{
		"byteOffset":0,
		"bufferView":8,
		"type":"SCALAR",
		"componentType":5123,
		"count":27864,
		"min":[0],
		"max":[4657]
	},
	{
		"byteOffset":0,
		"bufferView":9,
		"type":"VEC3",
		"componentType":5126,
		"count":4658,
		"min":[-7.503499984741211,
		-8.193181991577149,
		-9.920125007629395],
		"max":[6.7619781494140629,
		2.661296844482422,
		7.28537654876709]
	},
	{
		"byteOffset":12,
		"bufferView":9,
		"type":"VEC3",
		"componentType":5126,
		"count":4658,
		"min":[-0.9997813105583191,
		-0.9996875524520874,
		-0.9984375238418579],
		"max":[0.9976250529289246,
		0.9999063014984131,
		0.9987813234329224]
	},
	{
		"byteOffset":24,
		"bufferView":9,
		"type":"VEC2",
		"componentType":5126,
		"count":4658,
		"min":[-0.8910510540008545,
		-0.13307926058769227],
		"max":[0.891051173210144,
		0.13307926058769227]
	}],
	"bufferViews":[{
		"byteOffset":0,
		"buffer":0,
		"byteLength":1728,
		"target":34963
	},
	{
		"byteOffset":1728,
		"buffer":0,
		"byteLength":6304,
		"target":34962,
		"byteStride":32
	},
	{
		"byteOffset":0,
		"buffer":1,
		"byteLength":14592,
		"target":34963
	},
	{
		"byteOffset":14592,
		"buffer":1,
		"byteLength":45440,
		"target":34962,
		"byteStride":32
	},
	{
		"byteOffset":0,
		"buffer":2,
		"byteLength":8352,
		"target":34963
	},
	{
		"byteOffset":8352,
		"buffer":2,
		"byteLength":23040,
		"target":34962,
		"byteStride":32
	},
	{
		"byteOffset":0,
		"buffer":3,
		"byteLength":51840,
		"target":34963
	},
	{
		"byteOffset":51840,
		"buffer":3,
		"byteLength":161888,
		"target":34962,
		"byteStride":32
	},
	{
		"byteOffset":0,
		"buffer":4,
		"byteLength":55728,
		"target":34963
	},
	{
		"byteOffset":55728,
		"buffer":4,
		"byteLength":149056,
		"target":34962,
		"byteStride":32
	}],
	"buffers":[{
		"uri":"data:application/octet-stream;base64,",
		"byteLength":8032
	},
	{
		"uri":"data:application/octet-stream;base64,",
		"byteLength":60032
	},
	{
		"uri":"data:application/octet-stream;base64,",
		"byteLength":31392
	},
	{
		"uri":"data:application/octet-stream;base64,",
		"byteLength":213728
	},
	{
		"uri":"data:application/octet-stream;base64,",
		"byteLength":204784
	}],
	"materials":[{
		"pbrMetallicRoughness":{
			"baseColorFactor":[0.0,
			0.0,
			0.0,
			1.0],
			"metallicFactor":1.0,
			"roughnessFactor":1.0
		},
		"emissiveFactor":[0.0,
		0.0,
		0.0],
		"alphaMode":"OPAQUE",
		"doubleSided":true,
		"name":"eyes"
	},
	{
		"pbrMetallicRoughness":{
			"baseColorFactor":[0.016186395660042764,
			0.00911032222211361,
			0.004832164850085974,
			1.0],
			"metallicFactor":0.0,
			"roughnessFactor":0.6830074883902589
		},
		"emissiveFactor":[0.0,
		0.0,
		0.0],
		"alphaMode":"OPAQUE",
		"doubleSided":true,
		"name":"Nose.002"
	},
	{
		"pbrMetallicRoughness":{
			"baseColorFactor":[0.001891818130388856,
			0.001891818130388856,
			0.001891818130388856,
			1.0],
			"metallicFactor":0.0,
			"roughnessFactor":1.0
		},
		"emissiveFactor":[0.0,
		0.0,
		0.0],
		"alphaMode":"OPAQUE",
		"doubleSided":true,
		"name":"Material.012"
	},
	{
		"pbrMetallicRoughness":{
			"baseColorFactor":[0.44,
			0.19959794644728266,
			0.07514570643364459,
			1.0],
			"metallicFactor":0.0,
			"roughnessFactor":0.8299152602263362
		},
		"emissiveFactor":[0.0,
		0.0,
		0.0],
		"alphaMode":"OPAQUE",
		"doubleSided":true,
		"name":"fabric_white"
	},
	{
		"pbrMetallicRoughness":{
			"baseColorFactor":[0.5686274766921997,
			0.4292515516281128,
			0.2898908853530884,
			1.0],
			"metallicFactor":0.0,
			"roughnessFactor":0.5153845717992156
		},
		"emissiveFactor":[0.0,
		0.0,
		0.0],
		"alphaMode":"OPAQUE",
		"doubleSided":true,
		"name":"_FRONT_427414"
	}]
}