{
	"asset":{
		"version":"2.0",
		"generator":"Created using the official Cinema 4D glTF Exporter 1.000x284978"
	},
	"buffers":[{
		"uri":"data:application/octet-stream;base64,",
		"byteLength":46176
	},
	{
		"uri":"data:application/octet-stream;base64,",
		"byteLength":259704
	}],
	"scenes":[{
		"nodes":[0]
	}],
	"nodes":[{
		"name":"2.2",
		"scale":[1.5,
		1.5,
		1.5],
		"translation":[0.001187056303024292,
		-2.0134968757629396,
		-0.3960987329483032],
		"rotation":[0.22563301026821137,
		2.0340896966786205e-8,
		5.00330399333393e-9,
		0.9742123484611511],
		"children":[1,
		2]
	},
	{
		"name":"2.2-Mat",
		"mesh":0
	},
	{
		"name":"2.2-Mat",
		"mesh":1
	}],
	"meshes":[{
		"name":"2.2-Mat",
		"primitives":[{
			"attributes":{
				"POSITION":1,
				"NORMAL":2,
				"TEXCOORD_0":3
			},
			"indices":0,
			"material":0
		}]
	},
	{
		"name":"2.2-Mat",
		"primitives":[{
			"attributes":{
				"POSITION":5,
				"NORMAL":6,
				"TEXCOORD_0":7
			},
			"indices":4,
			"material":0
		}]
	}],
	"accessors":[{
		"byteOffset":0,
		"bufferView":0,
		"type":"SCALAR",
		"count":5520,
		"componentType":5123,
		"min":[0],
		"max":[1097]
	},
	{
		"byteOffset":0,
		"bufferView":1,
		"type":"VEC3",
		"count":1098,
		"componentType":5126,
		"min":[-0.04632794111967087,
		1.6562199592590333,
		0.10242190212011337],
		"max":[0.04632794111967087,
		1.682608962059021,
		0.13005200028419496]
	},
	{
		"byteOffset":12,
		"bufferView":1,
		"type":"VEC3",
		"count":1098,
		"componentType":5126,
		"min":[-1.0,
		-1.0,
		-1.0],
		"max":[1.0,
		1.0,
		1.0]
	},
	{
		"byteOffset":24,
		"bufferView":1,
		"type":"VEC2",
		"count":1098,
		"componentType":5126,
		"min":[0.02284795045852661,
		0.013011999428272248],
		"max":[0.9814860224723816,
		0.9929569959640503]
	},
	{
		"byteOffset":0,
		"bufferView":2,
		"type":"SCALAR",
		"count":34524,
		"componentType":5123,
		"min":[0],
		"max":[5957]
	},
	{
		"byteOffset":0,
		"bufferView":3,
		"type":"VEC3",
		"count":5958,
		"componentType":5126,
		"min":[-0.08836495131254196,
		1.4744529724121094,
		-0.0650099515914917],
		"max":[0.08836495131254196,
		1.7836780548095704,
		0.16377690434455872]
	},
	{
		"byteOffset":12,
		"bufferView":3,
		"type":"VEC3",
		"count":5958,
		"componentType":5126,
		"min":[-0.9995312690734863,
		-0.9998750686645508,
		-0.9997813105583191],
		"max":[0.9995312690734863,
		0.9998750686645508,
		1.0]
	},
	{
		"byteOffset":24,
		"bufferView":3,
		"type":"VEC2",
		"count":5958,
		"componentType":5126,
		"min":[0.0017839670181274415,
		0.5609869956970215],
		"max":[0.5151410102844238,
		0.9982750415802002]
	}],
	"bufferViews":[{
		"buffer":0,
		"byteOffset":0,
		"byteLength":11040,
		"target":34963
	},
	{
		"buffer":0,
		"byteOffset":11040,
		"byteLength":35136,
		"target":34962,
		"byteStride":32
	},
	{
		"buffer":1,
		"byteOffset":0,
		"byteLength":69048,
		"target":34963
	},
	{
		"buffer":1,
		"byteOffset":69048,
		"byteLength":190656,
		"target":34962,
		"byteStride":32
	}],
	"materials":[{
		"pbrMetallicRoughness":{
			"baseColorFactor":[0.8,
			0.8,
			0.8,
			1.0],
			"metallicFactor":0.0,
			"roughnessFactor":0.5
		},
		"emissiveFactor":[0.0,
		0.0,
		0.0],
		"alphaMode":"OPAQUE",
		"doubleSided":true,
		"name":"Mat"
	}]
}